<svg id="LucidPhoto-Logo" xmlns="http://www.w3.org/2000/svg" viewBox="0 0 898.28418 257.93607"><defs><style>.cls-1{fill:#333;}.cls-2{fill:#191919;}.cls-3{fill:#6cc;}</style></defs><g id="Logo"><g id="Text"><path class="cls-1" d="M373.53076,301.186h14.502v57.83154q0,9.49218,6.02051,14.41406,6.019,4.9248,16.47949,4.92188a32.879,32.879,0,0,0,17.3584-4.877,36.408,36.408,0,0,0,13.00782-13.84375,40.30721,40.30721,0,0,0,4.96582-19.86328V301.186h9.668v73.91552h4.834v9.668H445.86475v-19.248h-.26368A44.79822,44.79822,0,0,1,430.74756,381.957a36.06253,36.06253,0,0,1-20.21485,6.06445q-14.58984,0-23.3789-7.77734-8.78907-7.77833-8.78906-21.22656V310.854h-4.834Z" transform="translate(-197 -179.09738)"/><path class="cls-1" d="M508.981,388.02148a44.99994,44.99994,0,0,1,0-89.99951,43.17175,43.17175,0,0,1,29.88281,11.40918l2.28516,1.94629v7.54883h-9.668v-3.16016a35.32742,35.32742,0,1,0-22.5,62.58741,35.20444,35.20444,0,0,0,14.28222-2.98438,34.25874,34.25874,0,0,0,11.64551-8.252l7.03125,6.584a44.03449,44.03449,0,0,1-14.85351,10.543A44.61207,44.61207,0,0,1,508.981,388.02148Z" transform="translate(-197 -179.09738)"/><path class="cls-1" d="M549.59619,310.854h-4.834v-9.668h14.50195v83.58349h-9.668Zm4.834-43.418a7.02568,7.02568,0,0,1,5.09765,2.06542,6.9057,6.9057,0,0,1,2.10938,5.14161,7.04716,7.04716,0,0,1-2.10938,5.18554,6.94662,6.94662,0,0,1-5.09765,2.10938,7.09119,7.09119,0,0,1-5.14161-2.10938,7.26754,7.26754,0,0,1-.04394-10.2832A7.04716,7.04716,0,0,1,554.43018,267.436Z" transform="translate(-197 -179.09738)"/><path class="cls-1" d="M651.2959,375.10156h4.834v9.668H641.62793V367.9043h-.26367a42.91631,42.91631,0,0,1-13.71094,14.67187,32.50326,32.50326,0,0,1-18.10547,5.44531,40.78717,40.78717,0,0,1-17.00683-3.55664,39.09973,39.09973,0,0,1-13.27149-9.61523,44.68182,44.68182,0,0,1-8.48144-14.31445,51.20885,51.20885,0,0,1,0-34.96241,44.81818,44.81818,0,0,1,8.48144-14.34668,39.14663,39.14663,0,0,1,13.27149-9.63916,40.72423,40.72423,0,0,1,17.00683-3.56494,32.52483,32.52483,0,0,1,18.14942,5.42578,42.78535,42.78535,0,0,1,13.667,14.6875h.26367V272.27h-4.834v-9.668H651.2959ZM632.707,368.25781q8.91944-10.09571,8.9209-25.19336,0-15.09741-8.9209-25.23535-8.92089-10.13892-23.15918-10.13916-14.23829,0-23.20312,10.13916-8.96486,10.13892-8.96485,25.23535,0,15.09669,8.96485,25.19336,8.96484,10.09717,23.20312,10.09571Q623.78613,378.35352,632.707,368.25781Z" transform="translate(-197 -179.09738)"/><path class="cls-1" d="M666.16016,238.27h-4.834v-9.668H714.459a41.816,41.816,0,0,1,29.5586,71.36719,40.2948,40.2948,0,0,1-29.5625,12.21631h-38.627v72.584h-9.668Zm9.668,0v64.24805h38.584a32.124,32.124,0,0,0,0-64.24805Z" transform="translate(-197 -179.09738)"/><path class="cls-1" d="M846.61035,384.76953h-14.502V327.00391q0-9.47975-6.02051-14.39746-6.02051-4.91529-16.47949-4.91651A32.90758,32.90758,0,0,0,792.25,312.5625a36.38111,36.38111,0,0,0-13.00781,13.82764,40.21718,40.21718,0,0,0-4.96582,19.84033v38.53906h-9.668V272.27h-4.834v-9.668h14.502v57.99121h.17578a44.75469,44.75469,0,0,1,14.89746-16.48779,36.19242,36.19242,0,0,1,20.25879-6.0835q14.58837,0,23.3789,7.73438,8.7876,7.73511,8.78907,21.18164v48.16357h4.834Z" transform="translate(-197 -179.09738)"/><path class="cls-1" d="M863.4082,311.23975a44.9559,44.9559,0,1,1-13.18359,31.82666A43.30088,43.30088,0,0,1,863.4082,311.23975Zm6.85547,6.853a35.14752,35.14752,0,1,0,24.96094-10.40283A34.10754,34.10754,0,0,0,870.26367,318.09277Z" transform="translate(-197 -179.09738)"/><path class="cls-1" d="M951.83594,281.938h9.668v19.248h35.332v9.668h-35.332v49.8335a17.55409,17.55409,0,0,0,17.666,17.666,16.77273,16.77273,0,0,0,8.17383-2.06446,19.38163,19.38163,0,0,0,6.32813-5.49414v-3.6914h9.668v6.416l-.70312,1.31836a27.21665,27.21665,0,0,1-9.93164,9.625,26.85741,26.85741,0,0,1-13.53516,3.55859,27.30706,27.30706,0,0,1-27.334-27.334V310.854h-12.832v-9.668h12.832Z" transform="translate(-197 -179.09738)"/><path class="cls-1" d="M1018.46777,311.23975a44.9559,44.9559,0,1,1-13.18359,31.82666A43.30088,43.30088,0,0,1,1018.46777,311.23975Zm6.85547,6.853a35.14752,35.14752,0,1,0,24.96094-10.40283A34.10754,34.10754,0,0,0,1025.32324,318.09277Z" transform="translate(-197 -179.09738)"/></g><g id="L"><path id="Light" class="cls-1" d="M363.01294,372.13251,242.5,399.5l25.87842-219.96655h-20.301l2.8335,8.957a46.03187,46.03187,0,0,1,2.04156,10.01166,68.50336,68.50336,0,0,1-.38647,14.988L227.22479,399.46649,213.01569,437h-.05933l.05933.03345C255.18231,423.86682,311.83337,405.16663,354,392c3.1925-1.38721,5.658-2.30066,8.51569-15.46655A22.65,22.65,0,0,0,363.01294,372.13251Z" transform="translate(-197 -179.09738)"/><path id="Dark" class="cls-2" d="M227.22479,399.46649,252.566,213.49005a68.50336,68.50336,0,0,0,.38647-14.988,46.03187,46.03187,0,0,0-2.04156-10.01166l-2.8335-8.957H233.81268L241,197c2.67853,8.88239,1.313,17.7583-.01282,26.94055L218.58429,379.10138a87.75669,87.75669,0,0,1-12.03442,33.31726L197,428l15.95636,9h.05933Z" transform="translate(-197 -179.09738)"/><path id="Portal" class="cls-3" d="M244.51569,396.53345l115.56994-24.86951L362,188.84314a6.17989,6.17989,0,0,0-2.11005-4.71552l-3.66034-3.20282a7.38618,7.38618,0,0,0-5.12115-1.82293l-81.23206,5.767Z" transform="translate(-197 -179.09738)"/></g></g></svg>